<svg width="10" height="10" viewBox="0 0 10 10" fill="none" xmlns="http://www.w3.org/2000/svg">
<path d="M5 0C2.23859 0 0 2.23859 0 5C0 7.76156 2.23859 10 5 10C7.76156 10 10 7.76156 10 5C10 2.23859 7.76156 0 5 0ZM5 9.38484C2.58766 9.38484 0.625 7.41234 0.625 4.99998C0.625 2.58764 2.58766 0.62498 5 0.62498C7.41234 0.62498 9.375 2.58765 9.375 4.99998C9.375 7.41231 7.41234 9.38484 5 9.38484ZM6.99547 3.17047L4.06187 6.1225L2.74077 4.80141C2.61874 4.67938 2.42093 4.67938 2.29874 4.80141C2.17671 4.92344 2.17671 5.12125 2.29874 5.24328L3.84546 6.79016C3.96749 6.91203 4.1653 6.91203 4.28749 6.79016C4.30155 6.77609 4.31359 6.76077 4.32453 6.74484L7.43766 3.61249C7.55953 3.49046 7.55953 3.29265 7.43766 3.17047C7.31547 3.04844 7.11766 3.04844 6.99547 3.17047Z" fill="black"/>
</svg>
