<svg width="198" height="189" viewBox="0 0 198 189" fill="none" xmlns="http://www.w3.org/2000/svg">
<path d="M9.53125 152V38.875H54.5312C79.5312 38.875 92.0312 50.9062 92.0312 67.9375C92.0312 81.2188 83.4375 89.5 71.7188 92.1562V93.25C84.5312 93.875 96.5625 104.031 96.5625 120.75C96.5625 138.719 83.125 152 57.5 152H9.53125ZM52.8125 132.625C66.4062 132.625 72.1875 127 72.1875 118.562C72.1875 109.031 65 102.312 53.4375 102.312H32.9688V132.625H52.8125ZM51.0938 86.2188C60.9375 86.2188 68.2812 80.75 68.2812 71.6875C68.2812 63.5625 62.3438 57.9375 51.5625 57.9375H32.9688V86.2188H51.0938Z" fill="black"/>
<path d="M191.73 37.65L148.885 75.7898L142.563 69.8696L135.3 61.2931L117.012 77.4975L124.85 86.0363L137.912 100.268L138.314 151.5H150.975L156.401 98.37L198 45.6195L191.73 37.65ZM114.4 43.3425C117.172 43.3425 119.83 44.542 121.789 46.6771C123.749 48.8122 124.85 51.708 124.85 54.7275C124.85 57.747 123.749 60.6428 121.789 62.7779C119.83 64.913 117.172 66.1125 114.4 66.1125C108.6 66.1125 103.95 61.0462 103.95 54.7275C103.95 48.4088 108.652 43.3425 114.4 43.3425Z" fill="black"/>
</svg>
