<svg width="392" height="22" viewBox="0 0 392 22" fill="none" xmlns="http://www.w3.org/2000/svg">
<path d="M0 10.5H170.5" stroke="#868686"/>
<path d="M220 10.5H392" stroke="#868686"/>
<path d="M188.885 10.267H193.214V11.645H188.885V10.267ZM183.074 14.362H193.968V15.779H183.074V14.362ZM187.624 12.152H189.34V14.999H187.624V12.152ZM188.885 6.094H193.149V7.485H190.614V10.969H188.885V6.094ZM183.893 6.107H188.144V7.485H185.622V10.852H183.893V6.107ZM183.893 10.228H184.66C186.051 10.228 187.052 10.189 188.222 9.955L188.339 11.372C187.143 11.606 186.103 11.645 184.66 11.645H183.893V10.228ZM196.372 8.369H204.718V9.734H196.372V8.369ZM195.02 10.982H205.927V12.36H195.02V10.982ZM196.372 5.548H198.088V9.045H196.372V5.548ZM196.255 15.519H204.783V16.897H196.255V15.519ZM196.255 13.322H197.984V15.883H196.255V13.322Z" fill="#868686"/>
</svg>
