<svg width="7" height="9" viewBox="0 0 7 9" fill="none" xmlns="http://www.w3.org/2000/svg">
<path d="M0.808 9C0.584 9 0.393333 8.92133 0.236 8.764C0.0786667 8.60667 0 8.41617 0 8.1925V3.8075C0 3.58417 0.0786667 3.39367 0.236 3.236C0.393333 3.07867 0.584 3 0.808 3H1.5V2C1.5 1.443 1.69417 0.9705 2.0825 0.5825C2.4705 0.194167 2.943 0 3.5 0C4.057 0 4.52967 0.194167 4.918 0.5825C5.30633 0.970833 5.50033 1.44333 5.5 2V3H6.1925C6.41583 3 6.60633 3.07867 6.764 3.236C6.92133 3.39333 7 3.584 7 3.808V8.1925C7 8.41583 6.92133 8.60633 6.764 8.764C6.60667 8.92133 6.41617 9 6.1925 9H0.808ZM0.808 8.5H6.1925C6.28217 8.5 6.35583 8.47117 6.4135 8.4135C6.47117 8.35583 6.5 8.28217 6.5 8.1925V3.8075C6.5 3.71783 6.47117 3.64417 6.4135 3.5865C6.35583 3.52883 6.28217 3.5 6.1925 3.5H0.8075C0.717833 3.5 0.644167 3.52883 0.5865 3.5865C0.528833 3.64417 0.5 3.718 0.5 3.808V8.1925C0.5 8.28217 0.528833 8.35583 0.5865 8.4135C0.644167 8.47117 0.718 8.5 0.808 8.5ZM3.5 6.75C3.711 6.75 3.88867 6.67767 4.033 6.533C4.17767 6.38867 4.25 6.211 4.25 6C4.25 5.789 4.17767 5.61133 4.033 5.467C3.88833 5.32267 3.71067 5.25033 3.5 5.25C3.28933 5.24967 3.11167 5.322 2.967 5.467C2.82233 5.61133 2.75 5.789 2.75 6C2.75 6.211 2.82233 6.38867 2.967 6.533C3.11133 6.67767 3.289 6.75 3.5 6.75ZM2 3H5V2C5 1.58333 4.85417 1.22917 4.5625 0.9375C4.27083 0.645833 3.91667 0.5 3.5 0.5C3.08333 0.5 2.72917 0.645833 2.4375 0.9375C2.14583 1.22917 2 1.58333 2 2V3Z" fill="black"/>
</svg>
