<svg width="12" height="12" viewBox="0 0 12 12" fill="none" xmlns="http://www.w3.org/2000/svg">
<path d="M6 4C6.22981 4 6.45738 3.95474 6.6697 3.86679C6.88202 3.77884 7.07493 3.64994 7.23744 3.48744C7.39994 3.32493 7.52884 3.13202 7.61679 2.9197C7.70474 2.70738 7.75 2.47981 7.75 2.25C7.75 2.02019 7.70474 1.79262 7.61679 1.5803C7.52884 1.36798 7.39994 1.17507 7.23744 1.01256C7.07493 0.850061 6.88202 0.721157 6.6697 0.633211C6.45738 0.545265 6.22981 0.5 6 0.5C5.53587 0.5 5.09075 0.684375 4.76256 1.01256C4.43437 1.34075 4.25 1.78587 4.25 2.25C4.25 2.71413 4.43437 3.15925 4.76256 3.48744C5.09075 3.81563 5.53587 4 6 4ZM1.5 9.2V9.5H10.5V9.2C10.5 8.08 10.5 7.52 10.282 7.092C10.0903 6.71569 9.78431 6.40974 9.408 6.218C8.98 6 8.42 6 7.3 6H4.7C3.58 6 3.02 6 2.592 6.218C2.21569 6.40974 1.90974 6.71569 1.718 7.092C1.5 7.52 1.5 8.08 1.5 9.2Z" stroke="black" stroke-linecap="round" stroke-linejoin="round"/>
</svg>
