<svg width="28" height="28" viewBox="0 0 28 28" fill="none" xmlns="http://www.w3.org/2000/svg">
<path d="M14 11.3333C14.6128 11.3333 15.2197 11.2126 15.7859 10.9781C16.352 10.7436 16.8665 10.3998 17.2998 9.9665C17.7332 9.53316 18.0769 9.01871 18.3114 8.45252C18.546 7.88634 18.6667 7.2795 18.6667 6.66667C18.6667 6.05383 18.546 5.447 18.3114 4.88081C18.0769 4.31462 17.7332 3.80018 17.2998 3.36684C16.8665 2.9335 16.352 2.58975 15.7859 2.35523C15.2197 2.12071 14.6128 2 14 2C12.7623 2 11.5753 2.49167 10.7002 3.36684C9.825 4.24201 9.33333 5.42899 9.33333 6.66667C9.33333 7.90434 9.825 9.09133 10.7002 9.9665C11.5753 10.8417 12.7623 11.3333 14 11.3333ZM2 25.2V26H26V25.2C26 22.2133 26 20.72 25.4187 19.5787C24.9073 18.5752 24.0915 17.7593 23.088 17.248C21.9467 16.6667 20.4533 16.6667 17.4667 16.6667H10.5333C7.54667 16.6667 6.05333 16.6667 4.912 17.248C3.90851 17.7593 3.09265 18.5752 2.58133 19.5787C2 20.72 2 22.2133 2 25.2Z" stroke="#CA848A" stroke-width="3" stroke-linecap="round" stroke-linejoin="round"/>
</svg>
