<svg width="28" height="27" viewBox="0 0 28 27" fill="none" xmlns="http://www.w3.org/2000/svg">
<path d="M14 10.8333C14.6128 10.8333 15.2197 10.7126 15.7859 10.4781C16.352 10.2436 16.8665 9.89984 17.2998 9.4665C17.7332 9.03316 18.0769 8.51871 18.3114 7.95252C18.546 7.38634 18.6667 6.7795 18.6667 6.16667C18.6667 5.55383 18.546 4.947 18.3114 4.38081C18.0769 3.81462 17.7332 3.30018 17.2998 2.86684C16.8665 2.4335 16.352 2.08975 15.7859 1.85523C15.2197 1.62071 14.6128 1.5 14 1.5C12.7623 1.5 11.5753 1.99167 10.7002 2.86684C9.825 3.74201 9.33333 4.92899 9.33333 6.16667C9.33333 7.40434 9.825 8.59133 10.7002 9.4665C11.5753 10.3417 12.7623 10.8333 14 10.8333ZM2 24.7V25.5H26V24.7C26 21.7133 26 20.22 25.4187 19.0787C24.9073 18.0752 24.0915 17.2593 23.088 16.748C21.9467 16.1667 20.4533 16.1667 17.4667 16.1667H10.5333C7.54667 16.1667 6.05333 16.1667 4.912 16.748C3.90851 17.2593 3.09265 18.0752 2.58133 19.0787C2 20.22 2 21.7133 2 24.7Z" stroke="#7A7A7A" stroke-width="3" stroke-linecap="round" stroke-linejoin="round"/>
</svg>
